<svg t="1660095232748" class="icon" viewBox="0 0 1024 1024" version="1.1" xmlns="http://www.w3.org/2000/svg" p-id="1515" width="200" height="200"><path d="M434.897971 962.214818c-2.485611 0-4.357238-0.661056-5.599532-1.871627-8.714476-2.52552-11.821233-7.463995-9.335622-14.935154l57.877175-341.637937L225.804792 603.7701c-6.220678 0-10.577916-2.492774-13.071713-7.471159-3.727904-4.938476-3.106758-10.538007 1.871627-16.799618L602.920756 71.702042c4.978385-7.471159 10.577916-8.674567 16.799618-3.736091 6.220678 1.242294 9.335622 6.260587 9.335622 14.935154l-57.877175 341.646124L793.34269 424.547229c6.220678 0 10.577916 2.52552 13.071713 7.463995 1.242294 4.978385 1.242294 10.577916 0 16.806781L447.969685 956.615287C444.233594 960.343191 439.876356 962.214818 434.897971 962.214818z" p-id="1516" fill="#ffffff"></path></svg>